<mxfile host="Electron" modified="2024-05-16T10:47:55.539Z" agent="Mozilla/5.0 (Windows NT 10.0; Win64; x64) AppleWebKit/537.36 (KHTML, like Gecko) draw.io/24.2.5 Chrome/120.0.6099.109 Electron/28.1.0 Safari/537.36" etag="sCbNUiezxgODrcVvClcL" version="24.2.5" type="device">
  <diagram name="PÃ¡gina-1" id="_4TiKOStE6xhITATbB5I">
    <mxGraphModel dx="-253" dy="334" grid="1" gridSize="1" guides="1" tooltips="1" connect="1" arrows="1" fold="1" page="1" pageScale="1" pageWidth="827" pageHeight="1169" math="0" shadow="0">
      <root>
        <mxCell id="0" />
        <mxCell id="1" parent="0" />
        <mxCell id="1Dv79eOijzGl_WuKVhym-51" value="" style="rounded=0;whiteSpace=wrap;html=1;" vertex="1" parent="1">
          <mxGeometry x="930" y="880" width="40" height="60" as="geometry" />
        </mxCell>
        <mxCell id="1Dv79eOijzGl_WuKVhym-52" value="Q" style="text;html=1;align=center;verticalAlign=middle;whiteSpace=wrap;rounded=0;" vertex="1" parent="1">
          <mxGeometry x="950" y="880" width="20" height="30" as="geometry" />
        </mxCell>
        <mxCell id="1Dv79eOijzGl_WuKVhym-53" value="D" style="text;html=1;align=center;verticalAlign=middle;whiteSpace=wrap;rounded=0;" vertex="1" parent="1">
          <mxGeometry x="930" y="880" width="20" height="30" as="geometry" />
        </mxCell>
        <mxCell id="1Dv79eOijzGl_WuKVhym-54" value="" style="triangle;whiteSpace=wrap;html=1;" vertex="1" parent="1">
          <mxGeometry x="930" y="915" width="10" height="10" as="geometry" />
        </mxCell>
        <mxCell id="1Dv79eOijzGl_WuKVhym-55" value="" style="endArrow=classic;html=1;rounded=0;exitX=0.5;exitY=0;exitDx=0;exitDy=0;" edge="1" parent="1" source="1Dv79eOijzGl_WuKVhym-56">
          <mxGeometry width="50" height="50" relative="1" as="geometry">
            <mxPoint x="888" y="919" as="sourcePoint" />
            <mxPoint x="930" y="919.8" as="targetPoint" />
            <Array as="points">
              <mxPoint x="890" y="920" />
            </Array>
          </mxGeometry>
        </mxCell>
        <mxCell id="1Dv79eOijzGl_WuKVhym-56" value="clk@3.2MHz" style="text;html=1;align=center;verticalAlign=middle;whiteSpace=wrap;rounded=0;" vertex="1" parent="1">
          <mxGeometry x="840" y="925" width="100" height="16.5" as="geometry" />
        </mxCell>
        <mxCell id="1Dv79eOijzGl_WuKVhym-61" value="" style="verticalLabelPosition=bottom;shadow=0;dashed=0;align=center;html=1;verticalAlign=top;shape=mxgraph.electrical.logic_gates.logic_gate;operation=xor;" vertex="1" parent="1">
          <mxGeometry x="999" y="885" width="40" height="30" as="geometry" />
        </mxCell>
        <mxCell id="1Dv79eOijzGl_WuKVhym-62" value="" style="ellipse;whiteSpace=wrap;html=1;aspect=fixed;" vertex="1" parent="1">
          <mxGeometry x="1031" y="896.5" width="7" height="7" as="geometry" />
        </mxCell>
        <mxCell id="1Dv79eOijzGl_WuKVhym-63" value="" style="endArrow=none;html=1;rounded=0;" edge="1" parent="1" source="1Dv79eOijzGl_WuKVhym-73">
          <mxGeometry width="50" height="50" relative="1" as="geometry">
            <mxPoint x="970" y="892.6" as="sourcePoint" />
            <mxPoint x="1000" y="892.6" as="targetPoint" />
          </mxGeometry>
        </mxCell>
        <mxCell id="1Dv79eOijzGl_WuKVhym-64" value="" style="endArrow=none;html=1;rounded=0;" edge="1" parent="1">
          <mxGeometry width="50" height="50" relative="1" as="geometry">
            <mxPoint x="987.37" y="950" as="sourcePoint" />
            <mxPoint x="1000" y="907.49" as="targetPoint" />
            <Array as="points">
              <mxPoint x="988" y="907.49" />
            </Array>
          </mxGeometry>
        </mxCell>
        <mxCell id="1Dv79eOijzGl_WuKVhym-65" value="count enable" style="text;html=1;align=center;verticalAlign=middle;whiteSpace=wrap;rounded=0;" vertex="1" parent="1">
          <mxGeometry x="942" y="950" width="100" height="16.5" as="geometry" />
        </mxCell>
        <mxCell id="1Dv79eOijzGl_WuKVhym-66" value="" style="endArrow=classic;html=1;rounded=0;exitX=1;exitY=0.5;exitDx=0;exitDy=0;entryX=0;entryY=0.5;entryDx=0;entryDy=0;" edge="1" parent="1" source="1Dv79eOijzGl_WuKVhym-62" target="1Dv79eOijzGl_WuKVhym-53">
          <mxGeometry width="50" height="50" relative="1" as="geometry">
            <mxPoint x="1042" y="906" as="sourcePoint" />
            <mxPoint x="1092" y="856" as="targetPoint" />
            <Array as="points">
              <mxPoint x="1060" y="900" />
              <mxPoint x="1060" y="860" />
              <mxPoint x="910" y="860" />
              <mxPoint x="910" y="895" />
            </Array>
          </mxGeometry>
        </mxCell>
        <mxCell id="1Dv79eOijzGl_WuKVhym-67" value="" style="rounded=0;whiteSpace=wrap;html=1;" vertex="1" parent="1">
          <mxGeometry x="1092" y="881" width="40" height="60" as="geometry" />
        </mxCell>
        <mxCell id="1Dv79eOijzGl_WuKVhym-68" value="Q" style="text;html=1;align=center;verticalAlign=middle;whiteSpace=wrap;rounded=0;" vertex="1" parent="1">
          <mxGeometry x="1112" y="881" width="20" height="30" as="geometry" />
        </mxCell>
        <mxCell id="1Dv79eOijzGl_WuKVhym-69" value="D" style="text;html=1;align=center;verticalAlign=middle;whiteSpace=wrap;rounded=0;" vertex="1" parent="1">
          <mxGeometry x="1092" y="881" width="20" height="30" as="geometry" />
        </mxCell>
        <mxCell id="1Dv79eOijzGl_WuKVhym-70" value="" style="triangle;whiteSpace=wrap;html=1;" vertex="1" parent="1">
          <mxGeometry x="1092" y="916" width="10" height="10" as="geometry" />
        </mxCell>
        <mxCell id="1Dv79eOijzGl_WuKVhym-74" value="" style="endArrow=none;html=1;rounded=0;" edge="1" parent="1" target="1Dv79eOijzGl_WuKVhym-73">
          <mxGeometry width="50" height="50" relative="1" as="geometry">
            <mxPoint x="970" y="892.6" as="sourcePoint" />
            <mxPoint x="1000" y="892.6" as="targetPoint" />
          </mxGeometry>
        </mxCell>
        <mxCell id="1Dv79eOijzGl_WuKVhym-73" value="" style="ellipse;whiteSpace=wrap;html=1;aspect=fixed;" vertex="1" parent="1">
          <mxGeometry x="970" y="889.5" width="7" height="7" as="geometry" />
        </mxCell>
        <mxCell id="1Dv79eOijzGl_WuKVhym-75" value="" style="endArrow=classic;html=1;rounded=0;strokeWidth=1;entryX=0;entryY=0.6;entryDx=0;entryDy=0;entryPerimeter=0;" edge="1" parent="1" target="1Dv79eOijzGl_WuKVhym-70">
          <mxGeometry width="50" height="50" relative="1" as="geometry">
            <mxPoint x="990" y="893" as="sourcePoint" />
            <mxPoint x="1091" y="922" as="targetPoint" />
            <Array as="points">
              <mxPoint x="990" y="870" />
              <mxPoint x="1070" y="870" />
              <mxPoint x="1070" y="922" />
            </Array>
          </mxGeometry>
        </mxCell>
        <mxCell id="1Dv79eOijzGl_WuKVhym-76" value="" style="ellipse;whiteSpace=wrap;html=1;aspect=fixed;" vertex="1" parent="1">
          <mxGeometry x="1132" y="892.5" width="7" height="7" as="geometry" />
        </mxCell>
        <mxCell id="1Dv79eOijzGl_WuKVhym-77" value="" style="endArrow=none;html=1;rounded=0;startArrow=classic;startFill=1;endFill=0;entryX=1;entryY=0.5;entryDx=0;entryDy=0;exitX=0;exitY=0.5;exitDx=0;exitDy=0;" edge="1" parent="1" source="1Dv79eOijzGl_WuKVhym-69" target="1Dv79eOijzGl_WuKVhym-76">
          <mxGeometry width="50" height="50" relative="1" as="geometry">
            <mxPoint x="1085" y="894" as="sourcePoint" />
            <mxPoint x="1167" y="896" as="targetPoint" />
            <Array as="points">
              <mxPoint x="1080" y="896" />
              <mxPoint x="1080" y="870" />
              <mxPoint x="1148" y="870" />
              <mxPoint x="1148" y="896" />
            </Array>
          </mxGeometry>
        </mxCell>
        <mxCell id="1Dv79eOijzGl_WuKVhym-84" value="" style="rounded=0;whiteSpace=wrap;html=1;" vertex="1" parent="1">
          <mxGeometry x="1172" y="881" width="40" height="60" as="geometry" />
        </mxCell>
        <mxCell id="1Dv79eOijzGl_WuKVhym-85" value="Q" style="text;html=1;align=center;verticalAlign=middle;whiteSpace=wrap;rounded=0;" vertex="1" parent="1">
          <mxGeometry x="1192" y="881" width="20" height="30" as="geometry" />
        </mxCell>
        <mxCell id="1Dv79eOijzGl_WuKVhym-86" value="D" style="text;html=1;align=center;verticalAlign=middle;whiteSpace=wrap;rounded=0;" vertex="1" parent="1">
          <mxGeometry x="1172" y="881" width="20" height="30" as="geometry" />
        </mxCell>
        <mxCell id="1Dv79eOijzGl_WuKVhym-87" value="" style="triangle;whiteSpace=wrap;html=1;" vertex="1" parent="1">
          <mxGeometry x="1172" y="916" width="10" height="10" as="geometry" />
        </mxCell>
        <mxCell id="1Dv79eOijzGl_WuKVhym-88" value="" style="ellipse;whiteSpace=wrap;html=1;aspect=fixed;" vertex="1" parent="1">
          <mxGeometry x="1212" y="892.5" width="7" height="7" as="geometry" />
        </mxCell>
        <mxCell id="1Dv79eOijzGl_WuKVhym-89" value="" style="endArrow=none;html=1;rounded=0;startArrow=classic;startFill=1;endFill=0;entryX=1;entryY=0.5;entryDx=0;entryDy=0;exitX=0;exitY=0.5;exitDx=0;exitDy=0;" edge="1" parent="1" source="1Dv79eOijzGl_WuKVhym-86" target="1Dv79eOijzGl_WuKVhym-88">
          <mxGeometry width="50" height="50" relative="1" as="geometry">
            <mxPoint x="1165" y="894" as="sourcePoint" />
            <mxPoint x="1247" y="896" as="targetPoint" />
            <Array as="points">
              <mxPoint x="1160" y="896" />
              <mxPoint x="1160" y="870" />
              <mxPoint x="1228" y="870" />
              <mxPoint x="1228" y="896" />
            </Array>
          </mxGeometry>
        </mxCell>
        <mxCell id="1Dv79eOijzGl_WuKVhym-90" value="" style="endArrow=classic;html=1;rounded=0;entryX=0;entryY=0.5;entryDx=0;entryDy=0;" edge="1" parent="1" target="1Dv79eOijzGl_WuKVhym-87">
          <mxGeometry width="50" height="50" relative="1" as="geometry">
            <mxPoint x="1148" y="896" as="sourcePoint" />
            <mxPoint x="1096" y="882" as="targetPoint" />
            <Array as="points">
              <mxPoint x="1148" y="921" />
            </Array>
          </mxGeometry>
        </mxCell>
        <mxCell id="1Dv79eOijzGl_WuKVhym-91" value="" style="ellipse;whiteSpace=wrap;html=1;aspect=fixed;strokeColor=none;fillStyle=solid;fillColor=#000000;" vertex="1" parent="1">
          <mxGeometry x="988" y="891" width="3.5" height="3.5" as="geometry" />
        </mxCell>
        <mxCell id="1Dv79eOijzGl_WuKVhym-92" value="" style="ellipse;whiteSpace=wrap;html=1;aspect=fixed;strokeColor=none;fillStyle=solid;fillColor=#000000;" vertex="1" parent="1">
          <mxGeometry x="1146" y="894.25" width="3.5" height="3.5" as="geometry" />
        </mxCell>
        <mxCell id="1Dv79eOijzGl_WuKVhym-93" value="&lt;font style=&quot;font-size: 15px;&quot;&gt;. . .&lt;/font&gt;" style="text;html=1;align=center;verticalAlign=middle;whiteSpace=wrap;rounded=0;" vertex="1" parent="1">
          <mxGeometry x="1231" y="904" width="30" height="20" as="geometry" />
        </mxCell>
        <mxCell id="1Dv79eOijzGl_WuKVhym-95" value="" style="rounded=0;whiteSpace=wrap;html=1;" vertex="1" parent="1">
          <mxGeometry x="1271" y="881" width="40" height="60" as="geometry" />
        </mxCell>
        <mxCell id="1Dv79eOijzGl_WuKVhym-96" value="Q" style="text;html=1;align=center;verticalAlign=middle;whiteSpace=wrap;rounded=0;" vertex="1" parent="1">
          <mxGeometry x="1291" y="881" width="20" height="30" as="geometry" />
        </mxCell>
        <mxCell id="1Dv79eOijzGl_WuKVhym-97" value="D" style="text;html=1;align=center;verticalAlign=middle;whiteSpace=wrap;rounded=0;" vertex="1" parent="1">
          <mxGeometry x="1271" y="881" width="20" height="30" as="geometry" />
        </mxCell>
        <mxCell id="1Dv79eOijzGl_WuKVhym-98" value="" style="triangle;whiteSpace=wrap;html=1;" vertex="1" parent="1">
          <mxGeometry x="1271" y="916" width="10" height="10" as="geometry" />
        </mxCell>
        <mxCell id="1Dv79eOijzGl_WuKVhym-99" value="" style="ellipse;whiteSpace=wrap;html=1;aspect=fixed;" vertex="1" parent="1">
          <mxGeometry x="1311" y="892.5" width="7" height="7" as="geometry" />
        </mxCell>
        <mxCell id="1Dv79eOijzGl_WuKVhym-100" value="" style="endArrow=none;html=1;rounded=0;startArrow=classic;startFill=1;endFill=0;entryX=1;entryY=0.5;entryDx=0;entryDy=0;exitX=0;exitY=0.5;exitDx=0;exitDy=0;" edge="1" parent="1" source="1Dv79eOijzGl_WuKVhym-97" target="1Dv79eOijzGl_WuKVhym-99">
          <mxGeometry width="50" height="50" relative="1" as="geometry">
            <mxPoint x="1264" y="894" as="sourcePoint" />
            <mxPoint x="1346" y="896" as="targetPoint" />
            <Array as="points">
              <mxPoint x="1259" y="896" />
              <mxPoint x="1259" y="870" />
              <mxPoint x="1327" y="870" />
              <mxPoint x="1327" y="896" />
            </Array>
          </mxGeometry>
        </mxCell>
        <mxCell id="1Dv79eOijzGl_WuKVhym-101" value="" style="rounded=0;whiteSpace=wrap;html=1;" vertex="1" parent="1">
          <mxGeometry x="1351" y="881" width="40" height="60" as="geometry" />
        </mxCell>
        <mxCell id="1Dv79eOijzGl_WuKVhym-102" value="Q" style="text;html=1;align=center;verticalAlign=middle;whiteSpace=wrap;rounded=0;" vertex="1" parent="1">
          <mxGeometry x="1371" y="881" width="20" height="30" as="geometry" />
        </mxCell>
        <mxCell id="1Dv79eOijzGl_WuKVhym-103" value="D" style="text;html=1;align=center;verticalAlign=middle;whiteSpace=wrap;rounded=0;" vertex="1" parent="1">
          <mxGeometry x="1351" y="881" width="20" height="30" as="geometry" />
        </mxCell>
        <mxCell id="1Dv79eOijzGl_WuKVhym-104" value="" style="triangle;whiteSpace=wrap;html=1;" vertex="1" parent="1">
          <mxGeometry x="1351" y="916" width="10" height="10" as="geometry" />
        </mxCell>
        <mxCell id="1Dv79eOijzGl_WuKVhym-105" value="" style="ellipse;whiteSpace=wrap;html=1;aspect=fixed;" vertex="1" parent="1">
          <mxGeometry x="1391" y="892.5" width="7" height="7" as="geometry" />
        </mxCell>
        <mxCell id="1Dv79eOijzGl_WuKVhym-106" value="" style="endArrow=none;html=1;rounded=0;startArrow=classic;startFill=1;endFill=0;entryX=1;entryY=0.5;entryDx=0;entryDy=0;exitX=0;exitY=0.5;exitDx=0;exitDy=0;" edge="1" parent="1" source="1Dv79eOijzGl_WuKVhym-103" target="1Dv79eOijzGl_WuKVhym-105">
          <mxGeometry width="50" height="50" relative="1" as="geometry">
            <mxPoint x="1344" y="894" as="sourcePoint" />
            <mxPoint x="1426" y="896" as="targetPoint" />
            <Array as="points">
              <mxPoint x="1339" y="896" />
              <mxPoint x="1339" y="870" />
              <mxPoint x="1407" y="870" />
              <mxPoint x="1407" y="896" />
            </Array>
          </mxGeometry>
        </mxCell>
        <mxCell id="1Dv79eOijzGl_WuKVhym-107" value="" style="endArrow=classic;html=1;rounded=0;entryX=0;entryY=0.5;entryDx=0;entryDy=0;" edge="1" parent="1" target="1Dv79eOijzGl_WuKVhym-104">
          <mxGeometry width="50" height="50" relative="1" as="geometry">
            <mxPoint x="1327" y="896" as="sourcePoint" />
            <mxPoint x="1275" y="882" as="targetPoint" />
            <Array as="points">
              <mxPoint x="1327" y="921" />
            </Array>
          </mxGeometry>
        </mxCell>
        <mxCell id="1Dv79eOijzGl_WuKVhym-108" value="" style="ellipse;whiteSpace=wrap;html=1;aspect=fixed;strokeColor=none;fillStyle=solid;fillColor=#000000;" vertex="1" parent="1">
          <mxGeometry x="1325" y="894.25" width="3.5" height="3.5" as="geometry" />
        </mxCell>
        <mxCell id="1Dv79eOijzGl_WuKVhym-109" value="" style="rounded=0;whiteSpace=wrap;html=1;" vertex="1" parent="1">
          <mxGeometry x="1432" y="881" width="40" height="60" as="geometry" />
        </mxCell>
        <mxCell id="1Dv79eOijzGl_WuKVhym-110" value="Q" style="text;html=1;align=center;verticalAlign=middle;whiteSpace=wrap;rounded=0;" vertex="1" parent="1">
          <mxGeometry x="1452" y="881" width="20" height="30" as="geometry" />
        </mxCell>
        <mxCell id="1Dv79eOijzGl_WuKVhym-111" value="D" style="text;html=1;align=center;verticalAlign=middle;whiteSpace=wrap;rounded=0;" vertex="1" parent="1">
          <mxGeometry x="1432" y="881" width="20" height="30" as="geometry" />
        </mxCell>
        <mxCell id="1Dv79eOijzGl_WuKVhym-112" value="" style="triangle;whiteSpace=wrap;html=1;" vertex="1" parent="1">
          <mxGeometry x="1432" y="916" width="10" height="10" as="geometry" />
        </mxCell>
        <mxCell id="1Dv79eOijzGl_WuKVhym-113" value="" style="ellipse;whiteSpace=wrap;html=1;aspect=fixed;" vertex="1" parent="1">
          <mxGeometry x="1472" y="892.5" width="7" height="7" as="geometry" />
        </mxCell>
        <mxCell id="1Dv79eOijzGl_WuKVhym-114" value="" style="endArrow=none;html=1;rounded=0;startArrow=classic;startFill=1;endFill=0;entryX=1;entryY=0.5;entryDx=0;entryDy=0;exitX=0;exitY=0.5;exitDx=0;exitDy=0;" edge="1" parent="1" source="1Dv79eOijzGl_WuKVhym-111" target="1Dv79eOijzGl_WuKVhym-113">
          <mxGeometry width="50" height="50" relative="1" as="geometry">
            <mxPoint x="1425" y="894" as="sourcePoint" />
            <mxPoint x="1507" y="896" as="targetPoint" />
            <Array as="points">
              <mxPoint x="1420" y="896" />
              <mxPoint x="1420" y="870" />
              <mxPoint x="1488" y="870" />
              <mxPoint x="1488" y="896" />
            </Array>
          </mxGeometry>
        </mxCell>
        <mxCell id="1Dv79eOijzGl_WuKVhym-115" value="" style="rounded=0;whiteSpace=wrap;html=1;" vertex="1" parent="1">
          <mxGeometry x="1512" y="881" width="40" height="60" as="geometry" />
        </mxCell>
        <mxCell id="1Dv79eOijzGl_WuKVhym-116" value="Q" style="text;html=1;align=center;verticalAlign=middle;whiteSpace=wrap;rounded=0;" vertex="1" parent="1">
          <mxGeometry x="1532" y="881" width="20" height="30" as="geometry" />
        </mxCell>
        <mxCell id="1Dv79eOijzGl_WuKVhym-117" value="D" style="text;html=1;align=center;verticalAlign=middle;whiteSpace=wrap;rounded=0;" vertex="1" parent="1">
          <mxGeometry x="1512" y="881" width="20" height="30" as="geometry" />
        </mxCell>
        <mxCell id="1Dv79eOijzGl_WuKVhym-118" value="" style="triangle;whiteSpace=wrap;html=1;" vertex="1" parent="1">
          <mxGeometry x="1512" y="916" width="10" height="10" as="geometry" />
        </mxCell>
        <mxCell id="1Dv79eOijzGl_WuKVhym-119" value="" style="ellipse;whiteSpace=wrap;html=1;aspect=fixed;" vertex="1" parent="1">
          <mxGeometry x="1552" y="892.5" width="7" height="7" as="geometry" />
        </mxCell>
        <mxCell id="1Dv79eOijzGl_WuKVhym-120" value="" style="endArrow=none;html=1;rounded=0;startArrow=classic;startFill=1;endFill=0;entryX=1;entryY=0.5;entryDx=0;entryDy=0;exitX=0;exitY=0.5;exitDx=0;exitDy=0;" edge="1" parent="1" source="1Dv79eOijzGl_WuKVhym-117" target="1Dv79eOijzGl_WuKVhym-119">
          <mxGeometry width="50" height="50" relative="1" as="geometry">
            <mxPoint x="1505" y="894" as="sourcePoint" />
            <mxPoint x="1587" y="896" as="targetPoint" />
            <Array as="points">
              <mxPoint x="1500" y="896" />
              <mxPoint x="1500" y="870" />
              <mxPoint x="1568" y="870" />
              <mxPoint x="1568" y="896" />
            </Array>
          </mxGeometry>
        </mxCell>
        <mxCell id="1Dv79eOijzGl_WuKVhym-121" value="" style="endArrow=classic;html=1;rounded=0;entryX=0;entryY=0.5;entryDx=0;entryDy=0;" edge="1" parent="1" target="1Dv79eOijzGl_WuKVhym-118">
          <mxGeometry width="50" height="50" relative="1" as="geometry">
            <mxPoint x="1488" y="896" as="sourcePoint" />
            <mxPoint x="1436" y="882" as="targetPoint" />
            <Array as="points">
              <mxPoint x="1488" y="921" />
            </Array>
          </mxGeometry>
        </mxCell>
        <mxCell id="1Dv79eOijzGl_WuKVhym-122" value="" style="ellipse;whiteSpace=wrap;html=1;aspect=fixed;strokeColor=none;fillStyle=solid;fillColor=#000000;" vertex="1" parent="1">
          <mxGeometry x="1486" y="894.25" width="3.5" height="3.5" as="geometry" />
        </mxCell>
        <mxCell id="1Dv79eOijzGl_WuKVhym-123" value="" style="endArrow=classic;html=1;rounded=0;entryX=0;entryY=0.5;entryDx=0;entryDy=0;" edge="1" parent="1">
          <mxGeometry width="50" height="50" relative="1" as="geometry">
            <mxPoint x="1407" y="896.25" as="sourcePoint" />
            <mxPoint x="1431" y="921.25" as="targetPoint" />
            <Array as="points">
              <mxPoint x="1407" y="921.25" />
            </Array>
          </mxGeometry>
        </mxCell>
        <mxCell id="1Dv79eOijzGl_WuKVhym-124" value="" style="ellipse;whiteSpace=wrap;html=1;aspect=fixed;strokeColor=none;fillStyle=solid;fillColor=#000000;" vertex="1" parent="1">
          <mxGeometry x="1405" y="894.5" width="3.5" height="3.5" as="geometry" />
        </mxCell>
        <mxCell id="1Dv79eOijzGl_WuKVhym-125" value="" style="rounded=0;whiteSpace=wrap;html=1;" vertex="1" parent="1">
          <mxGeometry x="1592" y="881" width="40" height="60" as="geometry" />
        </mxCell>
        <mxCell id="1Dv79eOijzGl_WuKVhym-126" value="Q" style="text;html=1;align=center;verticalAlign=middle;whiteSpace=wrap;rounded=0;" vertex="1" parent="1">
          <mxGeometry x="1612" y="881" width="20" height="30" as="geometry" />
        </mxCell>
        <mxCell id="1Dv79eOijzGl_WuKVhym-127" value="D" style="text;html=1;align=center;verticalAlign=middle;whiteSpace=wrap;rounded=0;" vertex="1" parent="1">
          <mxGeometry x="1592" y="881" width="20" height="30" as="geometry" />
        </mxCell>
        <mxCell id="1Dv79eOijzGl_WuKVhym-128" value="" style="triangle;whiteSpace=wrap;html=1;" vertex="1" parent="1">
          <mxGeometry x="1592" y="916" width="10" height="10" as="geometry" />
        </mxCell>
        <mxCell id="1Dv79eOijzGl_WuKVhym-129" value="" style="ellipse;whiteSpace=wrap;html=1;aspect=fixed;" vertex="1" parent="1">
          <mxGeometry x="1632" y="892.5" width="7" height="7" as="geometry" />
        </mxCell>
        <mxCell id="1Dv79eOijzGl_WuKVhym-130" value="" style="endArrow=none;html=1;rounded=0;startArrow=classic;startFill=1;endFill=0;entryX=1;entryY=0.5;entryDx=0;entryDy=0;exitX=0;exitY=0.5;exitDx=0;exitDy=0;" edge="1" parent="1" source="1Dv79eOijzGl_WuKVhym-127" target="1Dv79eOijzGl_WuKVhym-129">
          <mxGeometry width="50" height="50" relative="1" as="geometry">
            <mxPoint x="1585" y="894" as="sourcePoint" />
            <mxPoint x="1667" y="896" as="targetPoint" />
            <Array as="points">
              <mxPoint x="1580" y="896" />
              <mxPoint x="1580" y="870" />
              <mxPoint x="1648" y="870" />
              <mxPoint x="1648" y="896" />
            </Array>
          </mxGeometry>
        </mxCell>
        <mxCell id="1Dv79eOijzGl_WuKVhym-131" value="" style="endArrow=classic;html=1;rounded=0;entryX=0;entryY=0.5;entryDx=0;entryDy=0;" edge="1" parent="1" target="1Dv79eOijzGl_WuKVhym-128">
          <mxGeometry width="50" height="50" relative="1" as="geometry">
            <mxPoint x="1568" y="896" as="sourcePoint" />
            <mxPoint x="1516" y="882" as="targetPoint" />
            <Array as="points">
              <mxPoint x="1568" y="921" />
            </Array>
          </mxGeometry>
        </mxCell>
        <mxCell id="1Dv79eOijzGl_WuKVhym-132" value="" style="ellipse;whiteSpace=wrap;html=1;aspect=fixed;strokeColor=none;fillStyle=solid;fillColor=#000000;" vertex="1" parent="1">
          <mxGeometry x="1566" y="894.25" width="3.5" height="3.5" as="geometry" />
        </mxCell>
        <mxCell id="1Dv79eOijzGl_WuKVhym-133" value="m[0]" style="text;html=1;align=center;verticalAlign=middle;whiteSpace=wrap;rounded=0;" vertex="1" parent="1">
          <mxGeometry x="1289" y="953" width="29" height="16.5" as="geometry" />
        </mxCell>
        <mxCell id="1Dv79eOijzGl_WuKVhym-134" value="" style="shape=or;whiteSpace=wrap;html=1;rotation=90;strokeWidth=1;" vertex="1" parent="1">
          <mxGeometry x="1305.5" y="981.5" width="24.5" height="34" as="geometry" />
        </mxCell>
        <mxCell id="1Dv79eOijzGl_WuKVhym-135" value="" style="endArrow=classic;html=1;rounded=0;entryX=0;entryY=0.75;entryDx=0;entryDy=0;entryPerimeter=0;" edge="1" parent="1" target="1Dv79eOijzGl_WuKVhym-134">
          <mxGeometry width="50" height="50" relative="1" as="geometry">
            <mxPoint x="1309" y="970" as="sourcePoint" />
            <mxPoint x="1320" y="900" as="targetPoint" />
          </mxGeometry>
        </mxCell>
        <mxCell id="1Dv79eOijzGl_WuKVhym-136" value="" style="endArrow=classic;html=1;rounded=0;entryX=0;entryY=0.25;entryDx=0;entryDy=0;entryPerimeter=0;" edge="1" parent="1">
          <mxGeometry width="50" height="50" relative="1" as="geometry">
            <mxPoint x="1327" y="920" as="sourcePoint" />
            <mxPoint x="1327.25" y="986.25" as="targetPoint" />
          </mxGeometry>
        </mxCell>
        <mxCell id="1Dv79eOijzGl_WuKVhym-137" value="" style="ellipse;whiteSpace=wrap;html=1;aspect=fixed;strokeColor=none;fillStyle=solid;fillColor=#000000;" vertex="1" parent="1">
          <mxGeometry x="1325" y="919.25" width="3.5" height="3.5" as="geometry" />
        </mxCell>
        <mxCell id="1Dv79eOijzGl_WuKVhym-146" value="m[1]" style="text;html=1;align=center;verticalAlign=middle;whiteSpace=wrap;rounded=0;" vertex="1" parent="1">
          <mxGeometry x="1369.5" y="953" width="29" height="16.5" as="geometry" />
        </mxCell>
        <mxCell id="1Dv79eOijzGl_WuKVhym-147" value="" style="shape=or;whiteSpace=wrap;html=1;rotation=90;strokeWidth=1;" vertex="1" parent="1">
          <mxGeometry x="1386" y="981.5" width="24.5" height="34" as="geometry" />
        </mxCell>
        <mxCell id="1Dv79eOijzGl_WuKVhym-148" value="" style="endArrow=classic;html=1;rounded=0;entryX=0;entryY=0.75;entryDx=0;entryDy=0;entryPerimeter=0;" edge="1" parent="1" target="1Dv79eOijzGl_WuKVhym-147">
          <mxGeometry width="50" height="50" relative="1" as="geometry">
            <mxPoint x="1389.5" y="970" as="sourcePoint" />
            <mxPoint x="1400.5" y="900" as="targetPoint" />
          </mxGeometry>
        </mxCell>
        <mxCell id="1Dv79eOijzGl_WuKVhym-149" value="" style="endArrow=classic;html=1;rounded=0;entryX=0;entryY=0.25;entryDx=0;entryDy=0;entryPerimeter=0;" edge="1" parent="1">
          <mxGeometry width="50" height="50" relative="1" as="geometry">
            <mxPoint x="1407.5" y="920" as="sourcePoint" />
            <mxPoint x="1407.75" y="986.25" as="targetPoint" />
          </mxGeometry>
        </mxCell>
        <mxCell id="1Dv79eOijzGl_WuKVhym-150" value="" style="ellipse;whiteSpace=wrap;html=1;aspect=fixed;strokeColor=none;fillStyle=solid;fillColor=#000000;" vertex="1" parent="1">
          <mxGeometry x="1405.5" y="919.25" width="3.5" height="3.5" as="geometry" />
        </mxCell>
        <mxCell id="1Dv79eOijzGl_WuKVhym-151" value="m[2]" style="text;html=1;align=center;verticalAlign=middle;whiteSpace=wrap;rounded=0;" vertex="1" parent="1">
          <mxGeometry x="1450" y="952.75" width="29" height="16.5" as="geometry" />
        </mxCell>
        <mxCell id="1Dv79eOijzGl_WuKVhym-152" value="" style="shape=or;whiteSpace=wrap;html=1;rotation=90;strokeWidth=1;" vertex="1" parent="1">
          <mxGeometry x="1466.5" y="981.25" width="24.5" height="34" as="geometry" />
        </mxCell>
        <mxCell id="1Dv79eOijzGl_WuKVhym-153" value="" style="endArrow=classic;html=1;rounded=0;entryX=0;entryY=0.75;entryDx=0;entryDy=0;entryPerimeter=0;" edge="1" parent="1" target="1Dv79eOijzGl_WuKVhym-152">
          <mxGeometry width="50" height="50" relative="1" as="geometry">
            <mxPoint x="1470" y="969.75" as="sourcePoint" />
            <mxPoint x="1481" y="899.75" as="targetPoint" />
          </mxGeometry>
        </mxCell>
        <mxCell id="1Dv79eOijzGl_WuKVhym-154" value="" style="endArrow=classic;html=1;rounded=0;entryX=0;entryY=0.25;entryDx=0;entryDy=0;entryPerimeter=0;" edge="1" parent="1">
          <mxGeometry width="50" height="50" relative="1" as="geometry">
            <mxPoint x="1488" y="919.75" as="sourcePoint" />
            <mxPoint x="1488.25" y="986" as="targetPoint" />
          </mxGeometry>
        </mxCell>
        <mxCell id="1Dv79eOijzGl_WuKVhym-155" value="" style="ellipse;whiteSpace=wrap;html=1;aspect=fixed;strokeColor=none;fillStyle=solid;fillColor=#000000;" vertex="1" parent="1">
          <mxGeometry x="1486" y="919" width="3.5" height="3.5" as="geometry" />
        </mxCell>
        <mxCell id="1Dv79eOijzGl_WuKVhym-156" value="m[3]" style="text;html=1;align=center;verticalAlign=middle;whiteSpace=wrap;rounded=0;" vertex="1" parent="1">
          <mxGeometry x="1530" y="952.5" width="29" height="16.5" as="geometry" />
        </mxCell>
        <mxCell id="1Dv79eOijzGl_WuKVhym-157" value="" style="shape=or;whiteSpace=wrap;html=1;rotation=90;strokeWidth=1;" vertex="1" parent="1">
          <mxGeometry x="1546.5" y="981" width="24.5" height="34" as="geometry" />
        </mxCell>
        <mxCell id="1Dv79eOijzGl_WuKVhym-158" value="" style="endArrow=classic;html=1;rounded=0;entryX=0;entryY=0.75;entryDx=0;entryDy=0;entryPerimeter=0;" edge="1" parent="1" target="1Dv79eOijzGl_WuKVhym-157">
          <mxGeometry width="50" height="50" relative="1" as="geometry">
            <mxPoint x="1550" y="969.5" as="sourcePoint" />
            <mxPoint x="1561" y="899.5" as="targetPoint" />
          </mxGeometry>
        </mxCell>
        <mxCell id="1Dv79eOijzGl_WuKVhym-159" value="" style="endArrow=classic;html=1;rounded=0;entryX=0;entryY=0.25;entryDx=0;entryDy=0;entryPerimeter=0;" edge="1" parent="1">
          <mxGeometry width="50" height="50" relative="1" as="geometry">
            <mxPoint x="1568" y="919.5" as="sourcePoint" />
            <mxPoint x="1568.25" y="985.75" as="targetPoint" />
          </mxGeometry>
        </mxCell>
        <mxCell id="1Dv79eOijzGl_WuKVhym-160" value="" style="ellipse;whiteSpace=wrap;html=1;aspect=fixed;strokeColor=none;fillStyle=solid;fillColor=#000000;" vertex="1" parent="1">
          <mxGeometry x="1566" y="918.75" width="3.5" height="3.5" as="geometry" />
        </mxCell>
        <mxCell id="1Dv79eOijzGl_WuKVhym-161" value="m[4]" style="text;html=1;align=center;verticalAlign=middle;whiteSpace=wrap;rounded=0;" vertex="1" parent="1">
          <mxGeometry x="1610" y="950.75" width="29" height="16.5" as="geometry" />
        </mxCell>
        <mxCell id="1Dv79eOijzGl_WuKVhym-162" value="" style="shape=or;whiteSpace=wrap;html=1;rotation=90;strokeWidth=1;" vertex="1" parent="1">
          <mxGeometry x="1626.5" y="979.25" width="24.5" height="34" as="geometry" />
        </mxCell>
        <mxCell id="1Dv79eOijzGl_WuKVhym-163" value="" style="endArrow=classic;html=1;rounded=0;entryX=0;entryY=0.75;entryDx=0;entryDy=0;entryPerimeter=0;" edge="1" parent="1" target="1Dv79eOijzGl_WuKVhym-162">
          <mxGeometry width="50" height="50" relative="1" as="geometry">
            <mxPoint x="1630" y="967.75" as="sourcePoint" />
            <mxPoint x="1641" y="897.75" as="targetPoint" />
          </mxGeometry>
        </mxCell>
        <mxCell id="1Dv79eOijzGl_WuKVhym-164" value="" style="endArrow=classic;html=1;rounded=0;entryX=0;entryY=0.25;entryDx=0;entryDy=0;entryPerimeter=0;" edge="1" parent="1">
          <mxGeometry width="50" height="50" relative="1" as="geometry">
            <mxPoint x="1648" y="896" as="sourcePoint" />
            <mxPoint x="1648.25" y="984" as="targetPoint" />
          </mxGeometry>
        </mxCell>
        <mxCell id="1Dv79eOijzGl_WuKVhym-165" value="" style="ellipse;whiteSpace=wrap;html=1;aspect=fixed;strokeColor=none;fillStyle=solid;fillColor=#000000;" vertex="1" parent="1">
          <mxGeometry x="1646" y="894.25" width="3.5" height="3.5" as="geometry" />
        </mxCell>
        <mxCell id="1Dv79eOijzGl_WuKVhym-167" value="" style="verticalLabelPosition=bottom;shadow=0;dashed=0;align=center;html=1;verticalAlign=top;shape=mxgraph.electrical.logic_gates.logic_gate;operation=or;rotation=90;" vertex="1" parent="1">
          <mxGeometry x="1453" y="1058" width="51.5" height="37.5" as="geometry" />
        </mxCell>
        <mxCell id="1Dv79eOijzGl_WuKVhym-168" value="" style="endArrow=none;html=1;rounded=0;entryX=0;entryY=0.75;entryDx=0;entryDy=0;entryPerimeter=0;exitX=1;exitY=0.5;exitDx=0;exitDy=0;exitPerimeter=0;" edge="1" parent="1" source="1Dv79eOijzGl_WuKVhym-134" target="1Dv79eOijzGl_WuKVhym-167">
          <mxGeometry width="50" height="50" relative="1" as="geometry">
            <mxPoint x="1270" y="1046" as="sourcePoint" />
            <mxPoint x="1320" y="996" as="targetPoint" />
            <Array as="points">
              <mxPoint x="1318" y="1051" />
            </Array>
          </mxGeometry>
        </mxCell>
        <mxCell id="1Dv79eOijzGl_WuKVhym-169" value="" style="endArrow=none;html=1;rounded=0;entryX=1;entryY=0.5;entryDx=0;entryDy=0;entryPerimeter=0;exitX=0.229;exitY=0.574;exitDx=0;exitDy=0;exitPerimeter=0;" edge="1" parent="1" source="1Dv79eOijzGl_WuKVhym-167" target="1Dv79eOijzGl_WuKVhym-147">
          <mxGeometry width="50" height="50" relative="1" as="geometry">
            <mxPoint x="1270" y="1046" as="sourcePoint" />
            <mxPoint x="1320" y="996" as="targetPoint" />
            <Array as="points">
              <mxPoint x="1476" y="1042" />
              <mxPoint x="1398" y="1042" />
            </Array>
          </mxGeometry>
        </mxCell>
        <mxCell id="1Dv79eOijzGl_WuKVhym-170" value="" style="endArrow=none;html=1;rounded=0;entryX=1;entryY=0.5;entryDx=0;entryDy=0;entryPerimeter=0;exitX=0.229;exitY=0.49;exitDx=0;exitDy=0;exitPerimeter=0;" edge="1" parent="1" source="1Dv79eOijzGl_WuKVhym-167" target="1Dv79eOijzGl_WuKVhym-152">
          <mxGeometry width="50" height="50" relative="1" as="geometry">
            <mxPoint x="1338" y="1010" as="sourcePoint" />
            <mxPoint x="1388" y="960" as="targetPoint" />
          </mxGeometry>
        </mxCell>
        <mxCell id="1Dv79eOijzGl_WuKVhym-171" value="" style="endArrow=none;html=1;rounded=0;entryX=1;entryY=0.5;entryDx=0;entryDy=0;entryPerimeter=0;" edge="1" parent="1" target="1Dv79eOijzGl_WuKVhym-157">
          <mxGeometry width="50" height="50" relative="1" as="geometry">
            <mxPoint x="1482" y="1063" as="sourcePoint" />
            <mxPoint x="1345" y="978" as="targetPoint" />
            <Array as="points">
              <mxPoint x="1482" y="1042" />
              <mxPoint x="1559" y="1042" />
            </Array>
          </mxGeometry>
        </mxCell>
        <mxCell id="1Dv79eOijzGl_WuKVhym-172" value="" style="endArrow=none;html=1;rounded=0;entryX=1;entryY=0.5;entryDx=0;entryDy=0;entryPerimeter=0;exitX=0;exitY=0.25;exitDx=0;exitDy=0;exitPerimeter=0;" edge="1" parent="1" source="1Dv79eOijzGl_WuKVhym-167" target="1Dv79eOijzGl_WuKVhym-162">
          <mxGeometry width="50" height="50" relative="1" as="geometry">
            <mxPoint x="1535" y="1058" as="sourcePoint" />
            <mxPoint x="1327" y="1054" as="targetPoint" />
            <Array as="points">
              <mxPoint x="1639" y="1051" />
            </Array>
          </mxGeometry>
        </mxCell>
        <mxCell id="1Dv79eOijzGl_WuKVhym-173" value="selected bit" style="text;html=1;align=center;verticalAlign=middle;whiteSpace=wrap;rounded=0;" vertex="1" parent="1">
          <mxGeometry x="1446" y="1104" width="65" height="21.5" as="geometry" />
        </mxCell>
      </root>
    </mxGraphModel>
  </diagram>
</mxfile>
